<?xml version="1.0" standalone="no"?><!DOCTYPE svg PUBLIC "-//W3C//DTD SVG 1.1//EN" "http://www.w3.org/Graphics/SVG/1.1/DTD/svg11.dtd"><svg t="1734497047520" class="icon" viewBox="0 0 1024 1024" version="1.1" xmlns="http://www.w3.org/2000/svg" p-id="2364" xmlns:xlink="http://www.w3.org/1999/xlink" width="128" height="128"><path d="M514.283557 735.115483L85.500601 789.718113a150.778007 150.778007 0 0 0 39.115246 32.664301l314.688291 181.701578c23.807054 13.695456 50.634787 20.530384 77.820906 19.86481l21.016765-50.174006 123.719882-295.207465a223.735107 223.735107 0 0 1-147.68053 56.548152h0.051198z" fill="#55A040" p-id="2365"></path><path d="M540.036134 1021.593696a148.243707 148.243707 0 0 0 47.870097-17.535303l314.662692-181.752776a148.294905 148.294905 0 0 0 56.164167-57.495314L732.130898 467.01734a222.89034 222.89034 0 0 1-24.498226 155.027438l-0.563178 1.023959-108.053305 257.781753-58.980055 140.743206z" fill="#439041" p-id="2366"></path><path d="M976.908368 693.670731V330.318774a147.962119 147.962119 0 0 0-21.733536-77.360125l-371.441235 47.358117a223.376721 223.376721 0 0 1 122.721521 99.528844l0.409584 0.614376 261.365611 343.435948a150.419621 150.419621 0 0 0 8.729253-50.174005l-0.051198-0.051198z" fill="#AACE4A" p-id="2367"></path><path d="M902.620121 201.60709L587.957429 19.931112a148.960479 148.960479 0 0 0-77.923303-19.864811L365.297479 345.473371a223.735107 223.735107 0 0 1 147.654931-56.548152l428.731758-54.628228a149.626052 149.626052 0 0 0-39.064047-32.689901z" fill="#9AC84B" p-id="2368"></path><path d="M439.278539 19.931112L124.590248 201.60709a147.270946 147.270946 0 0 0-56.138569 57.520914l226.653391 297.84416a223.427919 223.427919 0 0 1 23.960647-154.131473v-1.535939l1.612736-1.663934 51.32596-122.491131L487.071839 2.395809a149.293266 149.293266 0 0 0-47.7933 17.535303z" fill="#86BD47" p-id="2369"></path><path d="M59.056852 280.144768a149.19087 149.19087 0 0 0-8.754852 50.174006v363.351957c0 27.442109 7.500502 54.065051 21.759136 77.411322l371.441235-47.358117a223.939898 223.939898 0 0 1-122.926314-99.88723l-85.116617-111.867553-176.453785-231.875583 0.051197 0.051198z" fill="#70B242" p-id="2370"></path></svg>